<?xml version="1.0" standalone="no"?>
<!DOCTYPE svg PUBLIC "-//W3C//DTD SVG 20010904//EN"
 "http://www.w3.org/TR/2001/REC-SVG-20010904/DTD/svg10.dtd">
<svg version="1.0" xmlns="http://www.w3.org/2000/svg"
 width="400.000000pt" height="400.000000pt" viewBox="0 0 400.000000 400.000000"
 preserveAspectRatio="xMidYMid meet">
<metadata>
Created by potrace 1.11, written by Peter Selinger 2001-2013
</metadata>
<g transform="translate(0.000000,400.000000) scale(0.100000,-0.100000)"
fill="#000000" stroke="none">
<path d="M0 2000 l0 -2000 2000 0 2000 0 0 2000 0 2000 -2000 0 -2000 0 0
-2000z m1975 1730 c4 -11 18 -28 31 -37 23 -14 26 -14 43 1 9 9 27 16 38 16
19 0 20 -3 10 -24 -7 -14 -15 -20 -18 -14 -8 12 -109 -84 -109 -103 0 -8 -6
-6 -19 5 -19 17 -20 17 -24 -6 -2 -12 -3 -8 -1 11 2 19 9 39 15 45 9 8 10 7 6
-6 -4 -12 -2 -15 9 -11 8 3 13 11 11 17 -2 6 0 19 5 30 7 12 7 16 0 12 -13 -7
-44 3 -37 13 2 4 -10 5 -28 3 l-32 -4 25 25 c14 13 28 22 33 20 4 -2 10 3 13
11 8 22 21 20 29 -4z m75 -114 c0 -2 -8 -10 -17 -17 -16 -13 -17 -12 -4 4 13
16 21 21 21 13z m-151 -123 c10 -19 9 -23 -4 -23 -10 0 -15 9 -15 27 0 29 2
29 19 -4z m-99 -250 l-32 -26 24 -13 c12 -7 32 -28 42 -48 16 -30 17 -40 7
-63 -10 -21 -9 -28 1 -34 20 -13 36 -10 34 6 0 9 11 23 26 32 25 16 29 16 63
0 19 -9 35 -23 35 -32 0 -19 80 -21 98 -3 9 9 15 9 25 0 6 -7 13 -17 13 -22 1
-6 2 -15 3 -21 0 -5 6 -7 12 -4 6 4 13 -2 16 -14 3 -12 12 -21 20 -21 9 0 13
6 9 15 -3 8 -1 15 4 15 6 0 10 -6 10 -13 0 -9 12 -14 31 -15 18 0 49 -4 69 -7
22 -4 41 -2 44 4 5 7 15 7 32 1 31 -12 94 11 94 34 0 9 -5 16 -11 16 -5 0 -7
5 -4 10 4 6 11 8 16 4 5 -3 8 0 7 7 -5 19 22 22 28 2 4 -10 16 -28 27 -40 15
-17 23 -20 33 -12 16 13 65 3 76 -14 4 -7 8 -21 8 -32 -1 -19 -2 -19 -14 -3
-11 15 -18 15 -48 6 -32 -9 -34 -12 -24 -33 8 -19 17 -22 41 -18 25 4 32 0 43
-24 7 -16 40 -46 80 -71 62 -39 67 -41 70 -22 4 21 10 24 36 14 11 -4 14 -13
10 -30 -5 -18 -1 -25 12 -30 29 -9 47 -19 43 -25 -6 -7 25 -37 34 -32 10 6 47
-7 47 -17 0 -4 -9 -10 -21 -13 -12 -3 -18 -10 -14 -16 3 -6 1 -11 -4 -11 -6 0
-11 -7 -11 -15 0 -8 4 -15 9 -15 11 0 23 29 16 40 -10 17 46 20 73 4 31 -18
75 -81 69 -98 -2 -6 -10 0 -17 14 -17 33 -43 52 -51 38 -4 -7 -14 -6 -28 1
-25 14 -55 1 -71 -29 -13 -24 -13 -40 0 -20 8 11 9 8 4 -13 -4 -18 -1 -34 9
-45 19 -22 33 -67 18 -58 -17 11 -13 -3 10 -36 l21 -29 29 27 c19 18 29 38 30
58 l1 31 9 -27 c6 -15 18 -30 27 -32 9 -3 32 -18 49 -34 l33 -28 -40 4 c-28 3
-44 -1 -56 -13 -17 -16 -17 -18 -1 -27 10 -5 15 -13 12 -19 -4 -5 -2 -9 3 -9
14 0 23 -43 12 -54 -7 -7 -10 -2 -10 13 0 20 -2 21 -15 11 -13 -10 -19 -8 -37
16 -37 47 -69 77 -76 70 -3 -4 0 -11 8 -16 8 -6 11 -10 6 -10 -5 0 1 -11 14
-25 13 -14 20 -28 16 -32 -4 -4 -11 -1 -16 7 -6 8 -10 11 -10 5 0 -5 4 -17 9
-24 6 -9 6 -22 0 -33 -6 -12 -6 -18 1 -18 23 0 8 -18 -20 -23 -22 -5 -30 -12
-30 -27 0 -11 -7 -23 -15 -26 -8 -4 -15 -17 -15 -30 0 -13 -6 -24 -12 -25 -7
0 -24 -14 -38 -32 -14 -17 -19 -27 -11 -23 7 5 3 -5 -9 -22 -12 -17 -20 -37
-17 -46 4 -10 1 -13 -9 -9 -8 3 -14 -1 -14 -10 0 -8 -9 -26 -21 -41 -11 -14
-18 -30 -15 -35 3 -5 -4 -9 -17 -10 -62 -1 -87 -14 -87 -43 0 -19 -29 -58 -30
-40 0 7 5 23 11 35 11 21 11 21 -7 6 -10 -9 -43 -27 -71 -40 -29 -13 -53 -30
-53 -37 0 -14 -40 -32 -54 -24 -5 3 -26 8 -47 12 -31 6 -36 4 -31 -8 3 -10 1
-13 -6 -8 -7 4 -12 2 -12 -3 0 -6 -5 -11 -11 -11 -5 0 -8 4 -5 9 8 13 -21 34
-39 27 -8 -3 -15 -1 -15 4 0 17 -22 11 -40 -10 -15 -18 -19 -18 -36 -4 -10 9
-13 13 -7 9 7 -3 21 -1 30 5 12 7 13 10 3 7 -8 -2 -22 -1 -31 4 -12 6 -21 3
-30 -8 -8 -9 -9 -14 -3 -10 7 4 14 1 17 -6 4 -10 -2 -13 -19 -9 -13 2 -22 8
-19 12 7 11 -25 50 -41 50 -8 0 -13 4 -10 9 3 5 -18 9 -47 9 -37 0 -46 -2 -32
-8 19 -8 19 -9 1 -9 -14 -1 -16 -4 -7 -14 6 -8 8 -17 4 -20 -3 -4 0 -7 8 -7
11 0 11 -2 -1 -10 -9 -6 -10 -10 -3 -10 6 0 15 5 18 10 8 13 49 6 77 -14 l22
-16 -27 0 c-16 0 -26 4 -23 8 3 5 -8 6 -25 4 -24 -3 -28 -8 -24 -23 5 -14 2
-17 -9 -13 -8 3 -12 13 -9 22 4 14 3 15 -5 2 -6 -8 -8 -18 -5 -23 3 -5 -1 -14
-8 -19 -11 -8 -10 -9 4 -4 9 3 17 1 17 -4 0 -11 -25 -37 -41 -42 -13 -4 -14
-35 -7 -115 4 -34 1 -54 -6 -57 -6 -2 -4 -5 5 -5 10 -1 15 -9 13 -23 -1 -13
-3 -24 -4 -25 -7 -8 -5 -30 3 -40 6 -8 6 -18 -1 -25 -5 -7 -10 -71 -10 -143 0
-157 -10 -253 -29 -282 -13 -20 -13 -21 6 -16 17 4 21 1 21 -18 0 -37 -12 -47
-67 -59 -66 -14 -125 6 -118 40 3 16 0 20 -10 16 -8 -3 -17 -1 -20 4 -16 26
-22 3 -21 -73 1 -58 6 -89 18 -105 13 -19 15 -39 11 -102 -5 -62 -2 -82 11
-101 16 -24 22 -114 8 -135 -4 -6 -17 -14 -30 -18 -16 -6 -24 -3 -28 11 -3 10
-13 31 -22 48 -9 16 -15 42 -14 57 1 16 -1 28 -5 28 -5 0 -21 21 -37 48 -17
26 -42 62 -58 80 -31 37 -35 52 -13 52 8 0 15 -4 15 -9 0 -14 48 -41 63 -35 8
3 17 17 20 32 5 21 0 32 -20 48 -20 17 -24 27 -19 48 4 16 1 38 -8 55 -12 22
-12 31 -3 42 7 7 2 5 -11 -6 -19 -15 -40 -19 -121 -19 -55 -1 -103 -4 -107 -8
-4 -5 -26 -8 -48 -7 -23 0 -35 3 -28 6 15 6 16 39 2 48 -6 4 -7 11 -4 17 5 7
1 9 -9 5 -22 -8 -21 -1 3 25 11 12 20 32 20 45 0 16 4 22 11 17 7 -4 10 -1 7
7 -7 22 -84 24 -92 3 -5 -14 -4 -15 9 -4 13 11 14 10 9 -4 -3 -9 -16 -16 -28
-16 -25 0 -41 -10 -49 -30 -4 -12 -6 -12 -6 1 -1 10 11 31 26 48 25 29 32 31
93 31 81 0 92 7 81 46 -8 30 -5 34 75 103 61 53 84 79 84 96 0 13 -5 27 -10
30 -6 4 -8 15 -5 25 3 10 1 21 -4 24 -16 10 -3 111 23 183 18 50 12 76 -15 68
-20 -7 -28 18 -9 30 6 3 10 17 10 31 0 20 -5 24 -30 24 -16 0 -30 5 -30 10 0
6 7 10 15 10 22 0 37 43 19 53 -8 5 -11 14 -7 20 4 7 8 30 8 52 1 22 5 52 9
68 8 25 6 27 -23 27 -21 0 -34 6 -38 18 -10 25 -24 32 -47 21 -22 -11 19 29
101 99 50 42 51 43 49 95 -2 29 -6 63 -10 77 -5 21 -5 22 3 5 11 -23 14 -3 5
33 -8 29 -18 28 -56 -9 -23 -21 -38 -28 -53 -24 -11 3 -35 9 -53 12 -34 6 -59
42 -48 70 7 18 36 17 36 -2 0 -9 10 -15 26 -15 14 0 23 -4 19 -10 -4 -6 -11
-7 -17 -4 -6 4 -9 1 -7 -5 3 -7 8 -12 12 -12 4 1 16 1 28 1 15 0 19 5 15 15
-4 11 1 15 19 15 14 0 26 5 26 10 2 14 5 22 12 40 4 8 8 26 9 40 3 23 0 25
-32 24 -51 -2 -116 -32 -101 -47 40 -40 -31 -10 -76 33 -15 14 -36 20 -65 20
-36 0 -50 7 -85 40 -40 37 -54 60 -35 60 4 0 12 -4 17 -9 7 -6 10 9 10 40 0
48 -2 51 -29 56 -43 9 -68 56 -62 116 5 42 3 47 -9 37 -26 -22 -18 8 26 89
l40 76 92 47 c100 51 124 58 207 59 30 1 75 8 100 15 25 8 55 14 66 14 25 0
34 17 34 67 0 20 3 33 7 30 9 -10 42 43 37 58 -6 15 19 62 42 80 11 8 38 15
62 15 l44 0 -32 -27z m1490 -26 c0 -6 -9 -2 -20 8 -11 10 -20 23 -20 28 0 6 9
2 20 -8 11 -10 20 -23 20 -28z m50 -36 c0 -8 12 -27 27 -43 14 -15 23 -31 20
-35 -9 -8 -40 25 -60 64 -14 25 -14 30 -1 30 8 0 14 -7 14 -16z m-1096 -116
c-7 -16 -24 -21 -24 -6 0 8 7 13 27 20 1 1 0 -6 -3 -14z m576 -78 c10 -5 9 -6
-5 -4 -11 1 -26 -2 -33 -7 -22 -13 -27 3 -6 18 10 8 21 11 24 7 3 -5 12 -11
20 -14z m490 -167 c0 -5 -7 -10 -15 -10 -8 0 -15 5 -15 10 0 6 7 10 15 10 8 0
15 -4 15 -10z m-150 -629 c0 -10 -9 -21 -21 -24 -13 -4 -18 -1 -15 6 3 7 9 20
12 29 8 22 24 14 24 -11z m-1033 -433 c7 -1 14 -7 17 -15 7 -17 1 -16 -29 3
-23 15 -25 15 -25 0 0 -10 -5 -13 -17 -9 -12 5 -13 8 -4 11 11 4 11 6 0 14
-10 7 -5 8 16 3 17 -3 35 -6 42 -7z m-7 -82 c0 -11 -19 -15 -25 -6 -3 5 1 10
9 10 9 0 16 -2 16 -4z m-860 -792 c0 -8 -19 -13 -24 -6 -3 5 1 9 9 9 8 0 15
-2 15 -3z m-19 -77 c-8 -8 -16 -9 -29 -1 -21 13 -22 36 -3 42 8 3 11 0 7 -7
-4 -6 -2 -11 3 -11 6 0 11 8 12 18 0 13 3 12 11 -6 9 -17 8 -26 -1 -35z m365
-244 c-7 -7 -26 7 -26 19 0 6 6 6 15 -2 9 -7 13 -15 11 -17z m79 -152 c-3 -12
-11 -19 -16 -16 -5 4 -3 14 3 25 15 24 22 19 13 -9z"/>
<path d="M1760 3165 c7 -9 15 -13 17 -11 7 7 -7 26 -19 26 -6 0 -6 -6 2 -15z"/>
<path d="M1750 3103 c-11 -13 -12 -17 -1 -21 11 -4 11 -6 0 -14 -12 -8 -12 -9
0 -6 8 2 15 16 17 31 3 31 3 31 -16 10z"/>
<path d="M1730 3019 c0 -5 5 -7 10 -4 6 3 10 8 10 11 0 2 -4 4 -10 4 -5 0 -10
-5 -10 -11z"/>
<path d="M1252 2888 c-12 -6 -36 -35 -53 -65 -17 -29 -36 -53 -42 -53 -8 0 -8
-3 0 -11 10 -10 132 6 200 26 17 6 25 1 38 -26 16 -31 18 -32 31 -15 11 16 10
22 -4 42 -9 13 -27 24 -39 24 -16 0 -23 7 -26 28 l-4 27 -2 -28 c0 -16 -5 -26
-11 -22 -5 3 -7 12 -3 20 3 8 0 15 -6 15 -6 0 -11 -10 -11 -22 l0 -22 -20 22
c-11 11 -18 27 -17 34 2 7 2 10 0 5 -3 -4 -9 -4 -14 -1 -6 3 -5 11 2 20 13 16
12 16 -19 2z"/>
<path d="M1255 2750 c-22 -4 -51 -12 -65 -17 l-25 -10 23 -7 c26 -9 85 9 102
30 7 7 11 13 9 13 -2 -1 -22 -5 -44 -9z"/>
<path d="M2070 2748 c0 -23 33 -103 52 -124 25 -28 23 -34 -11 -34 -16 0 -31
-5 -33 -10 -2 -6 -14 -12 -27 -15 -13 -2 -32 -12 -41 -20 -18 -17 -33 -65 -20
-65 4 0 6 -11 5 -25 -2 -14 1 -27 6 -31 15 -9 10 -136 -6 -168 -17 -32 -20
-49 -5 -26 10 15 8 -82 -4 -172 -3 -24 -2 -59 2 -78 7 -31 12 -35 43 -37 91
-7 268 37 330 82 42 30 45 35 41 68 -3 26 2 45 19 69 13 18 23 40 22 48 -2 9
0 10 3 3 8 -18 21 -16 28 3 3 8 2 13 -2 10 -4 -2 -14 0 -22 6 -13 8 -12 9 2 5
34 -11 51 16 51 84 0 35 -3 75 -5 89 -3 14 -6 33 -7 43 0 10 -4 16 -8 14 -5
-3 -16 11 -26 30 -9 19 -13 32 -8 29 5 -4 13 -2 16 4 7 12 -10 41 -44 77 -12
12 -21 26 -21 31 0 12 -72 62 -88 62 -7 0 -12 5 -12 10 0 6 -9 1 -20 -10 -24
-24 -49 -28 -30 -5 10 12 10 15 -1 17 -29 3 -35 5 -64 20 -42 21 -115 32 -115
16z"/>
<path d="M1484 2719 c-3 -6 -1 -15 6 -19 9 -5 9 -13 1 -28 -6 -12 -8 -45 -4
-84 4 -44 2 -67 -6 -72 -10 -6 -17 21 -12 48 3 15 -21 36 -42 36 -11 0 -17 -3
-13 -7 4 -5 13 -8 19 -8 5 0 12 -7 14 -15 4 -12 3 -12 -5 -1 -7 9 -11 10 -17
2 -3 -7 -15 -9 -26 -6 -14 5 -19 2 -19 -12 0 -11 6 -25 12 -31 10 -10 8 -14
-10 -18 -27 -8 -28 -25 -4 -47 14 -13 21 -14 30 -5 9 9 12 8 12 -4 0 -9 -12
-23 -26 -33 -37 -24 -21 -31 25 -10 27 12 45 29 57 54 10 20 19 30 22 23 6
-20 22 -3 23 26 0 24 1 25 8 7 6 -15 11 -6 19 40 5 33 6 67 2 75 -4 8 -5 21
-2 29 3 8 0 11 -6 7 -13 -8 -27 37 -17 53 3 7 -2 11 -14 11 -11 0 -23 -5 -27
-11z m53 -151 c-3 -8 -6 -5 -6 6 -1 11 2 17 5 13 3 -3 4 -12 1 -19z"/>
<path d="M1310 2697 c0 -14 -5 -27 -11 -29 -14 -5 -17 -70 -3 -75 6 -2 14 5
17 17 6 23 27 28 27 6 0 -8 7 -16 15 -20 10 -4 15 1 15 14 0 14 7 20 21 20 24
0 21 18 -4 34 -13 8 -20 7 -27 -4 -8 -12 -10 -11 -10 6 0 11 -9 29 -20 39 -20
18 -20 17 -20 -8z"/>
<path d="M1431 2684 c0 -11 3 -14 6 -6 3 7 2 16 -1 19 -3 4 -6 -2 -5 -13z"/>
<path d="M1111 2655 c0 -11 4 -27 9 -35 9 -13 10 -13 9 0 0 8 -4 24 -9 35 l-9
20 0 -20z"/>
<path d="M1205 2560 c-3 -6 1 -7 9 -4 18 7 21 14 7 14 -6 0 -13 -4 -16 -10z"/>
<path d="M1315 2550 c-3 -5 -2 -10 4 -10 5 0 13 5 16 10 3 6 2 10 -4 10 -5 0
-13 -4 -16 -10z"/>
<path d="M1215 2540 c-10 -16 4 -30 22 -23 12 5 15 2 10 -10 -4 -11 1 -20 13
-27 19 -10 24 -6 21 13 0 4 4 7 9 7 6 0 10 5 10 11 0 5 -4 8 -8 5 -5 -3 -23 4
-40 14 -18 11 -34 15 -37 10z"/>
<path d="M2477 1743 c-13 -13 -7 -21 13 -16 11 3 17 9 14 14 -6 11 -18 12 -27
2z"/>
<path d="M1725 540 c3 -5 8 -10 11 -10 2 0 4 5 4 10 0 6 -5 10 -11 10 -5 0 -7
-4 -4 -10z"/>
<path d="M1750 468 c0 -10 -4 -18 -9 -18 -4 0 -6 -12 -3 -26 3 -16 9 -23 18
-20 8 3 13 1 11 -3 -1 -5 3 -8 8 -8 6 1 8 7 7 12 -2 6 -5 18 -7 27 -2 10 -8
26 -14 35 -10 17 -10 17 -11 1z"/>
</g>
</svg>
